<svg width="60" height="61" viewBox="0 0 60 61" fill="none" xmlns="http://www.w3.org/2000/svg">
<path d="M54.5484 12.374L31.3503 0.680662C30.501 0.252544 29.499 0.252545 28.6497 0.680663L5.45158 12.374C3.22696 13.4954 3.25932 16.6827 5.50624 17.7587L28.7043 28.8673C29.5235 29.2597 30.4764 29.2597 31.2957 28.8673L54.4938 17.7587C56.7407 16.6827 56.773 13.4953 54.5484 12.374Z" fill="#006599"/>
<path d="M32.5 57.4028V34.7382C32.5 33.5485 33.203 32.4712 34.292 31.9922L55.792 22.5341C57.7747 21.6619 60 23.114 60 25.2801V47.9447C60 49.1344 59.297 50.2117 58.208 50.6908L36.708 60.1488C34.7253 61.0211 32.5 59.5689 32.5 57.4028Z" fill="#006599"/>
<path d="M0 47.9236V25.2311C0 23.0777 2.20146 21.6257 4.18096 22.4734L26.431 32.0015C27.5344 32.4741 28.25 33.5589 28.25 34.7593V57.4518C28.25 59.6052 26.0485 61.0573 24.069 60.2096L1.81903 50.6814C0.715558 50.2089 0 49.124 0 47.9236Z" fill="#006599"/>
</svg>
