<svg width="80" height="59" viewBox="0 0 80 59" fill="none" xmlns="http://www.w3.org/2000/svg">
<path d="M73.522 6.76099L61.1115 0.555726C60.3998 0.199901 59.5759 0.141351 58.8211 0.392958L6.87097 17.7097C4.33541 18.5549 4.08747 22.0437 6.47802 23.239L18.8885 29.4443C19.6002 29.8001 20.4241 29.8586 21.1789 29.607L73.129 12.2903C75.6646 11.4451 75.9125 7.95626 73.522 6.76099Z" fill="#006599"/>
<path d="M75.9787 14.956L23.9787 33.7836C22.7911 34.2136 22 35.3413 22 36.6044V55.7922C22 57.8529 24.0298 59.3001 25.978 58.6283L77.978 40.6973C79.188 40.28 80 39.141 80 37.8611V17.7768C80 15.6967 77.9346 14.2478 75.9787 14.956Z" fill="#006599"/>
<path d="M16.4569 33.1427L4.45693 26.4761C2.45734 25.3652 0 26.8111 0 29.0985V48.1911C0 49.3037 0.615751 50.325 1.59972 50.8443L13.5997 57.1776C15.5976 58.2321 18 56.7835 18 54.5245V35.7652C18 34.6757 17.4093 33.6718 16.4569 33.1427Z" fill="#006599"/>
</svg>
