<svg width="60" height="61" viewBox="0 0 60 61" fill="none" xmlns="http://www.w3.org/2000/svg">
<path fill-rule="evenodd" clip-rule="evenodd" d="M25 19.5C38.8071 19.5 50 15.1348 50 9.75C50 4.36522 38.8071 0 25 0C11.1929 0 0 4.36522 0 9.75C0 15.1348 11.1929 19.5 25 19.5ZM50 22.4123V52.7068C50 53.742 49.3712 54.6735 48.411 55.0607C33.3912 61.1167 16.6088 61.1167 1.58895 55.0607C0.62879 54.6735 0 53.742 0 52.7068V22.4123C0 21.0192 1.40897 20.0681 2.701 20.589C17.0074 26.3574 32.9926 26.3574 47.299 20.589C48.591 20.0681 50 21.0192 50 22.4123Z" fill="#006599"/>
</svg>
