<?xml version="1.0" encoding="UTF-8" standalone="no"?>
<!-- Created with Inkscape (http://www.inkscape.org/) -->

<svg
   width="789.79211"
   height="680.51941"
   viewBox="0 0 208.96582 180.0541"
   version="1.1"
   id="svg5"
   xml:space="preserve"
   xmlns="http://www.w3.org/2000/svg"
   xmlns:svg="http://www.w3.org/2000/svg"><defs
     id="defs2" /><g
     id="layer1"
     transform="translate(-519.08242,157.31291)"><rect
       style="opacity:1;fill:#ffffff;fill-opacity:1;stroke:none;stroke-width:1.5875;stroke-linecap:round;stroke-linejoin:round;stroke-dasharray:1.5875, 4.7625;stroke-dashoffset:0;stroke-opacity:1"
       id="rect33921"
       width="208.96588"
       height="180.05409"
       x="519.0824"
       y="-22.741179"
       transform="scale(1,-1)" /><g
       id="g133604"><g
         id="g133597"><g
           id="g135145"
           transform="matrix(0.48208914,0,0,0.48208914,296.3617,-48.55516)"
           style="fill:#056102;fill-opacity:1"><path
             style="fill:#056102;fill-opacity:1;stroke:none;stroke-width:1.5875;stroke-linecap:round;stroke-linejoin:round;stroke-dasharray:1.5875, 3.175;stroke-dashoffset:0;stroke-opacity:1"
             d="m 637.00217,4.0889402 c 0,0 1.88916,-2.450057 5.44065,-5.4805687 0.63347,-0.4534509 4.08391,-2.5009715 7.95309,-5.8294927 0,-1.9e-6 1e-5,-3.8e-6 1e-5,-5.7e-6 1.9159,-1.9252931 3.19538,-3.9998811 3.91153,-6.1109481 0.80747,-2.684054 0.93605,-4.777461 0.7135,-6.3767 -0.8069,-6.330513 -3.35632,-10.809563 -5.74482,-12.49682 -3.73179,-2.636158 -8.22281,-2.938639 -11.67735,-2.566724 -3.49511,0.376282 -6.0512,1.400393 -6.0512,1.400393 0,0 3.66118,0.564823 7.82731,2.263228 4.03641,1.645521 9.02325,4.56016 10.24883,9.805892 0.0411,0.17578 0.0806,0.352467 0.1185,0.530087 0.31306,1.442963 0.40568,3.095555 0.001,5.072592 0,0 0,3e-6 0,3e-6 -0.37225,1.572424 -1.15023,3.131046 -2.38787,4.576267 -2.77241,2.9448075 -5.39286,4.6110942 -6.41429,5.5447633 -2.59392,2.5064503 -4.13944,4.62159916 -4.63857,5.92374889 -0.95352,2.48753461 0.6992,3.74428501 0.6992,3.74428501 z"
             id="path134863-8"
             class="UnoptimicedTransforms"
             transform="translate(-10.847917,8.3343749)" /><path
             style="fill:#056102;fill-opacity:1;stroke:none;stroke-width:1.5875;stroke-linecap:round;stroke-linejoin:round;stroke-dasharray:1.5875, 3.175;stroke-dashoffset:0;stroke-opacity:1"
             d="m 630.21714,5.7101423 c 0,0 -0.0335,-4.94429079 -0.73019,-10.373961 -0.67598,-5.2678045 -1.9468,-11.7279313 -4.62118,-14.6911623 -2.82811,-3.133551 -6.66991,-5.15441 -10.00303,-6.334049 -3.29017,-1.164438 -5.9278,-1.435775 -5.9278,-1.435775 0,0 12.64147,7.576791 14.5078,14.612188 1.9079,7.1921285 2.68791,13.6322537 3.75259,15.9465579 1.06565,2.3164584 3.02181,2.2762014 3.02181,2.2762014 z"
             id="path134863-5"
             class="UnoptimicedTransforms"
             transform="translate(-3.0427083,3.0427083)" /><path
             style="fill:#056102;fill-opacity:1;stroke:none;stroke-width:1.5875;stroke-linecap:round;stroke-linejoin:round;stroke-dasharray:1.5875, 3.175;stroke-dashoffset:0;stroke-opacity:1"
             d="m 622.11777,-9.1599299 c 0,0 -0.9847,0.1199385 -2.76795,-0.2714422 -2.01105,-0.4413776 -4.25439,-1.3352569 -7.61754,-2.8791129 -5.16286,-2.712625 -10.57385,-5.640192 -14.60092,-4.774279 -4.23233,0.910059 -7.52588,4.149981 -9.77526,6.69354 -2.30305,2.6042405 -3.74674,4.7400312 -3.74674,4.7400312 0,0 2.8626,-2.3290002 6.82038,-4.1612712 4.04074,-1.870682 9.01605,-3.011432 13.14832,-1.243057 1.41379,0.605022 2.85231,1.2650108 4.12853,1.8388746 6.21782,2.5977445 9.7769,3.2896869 11.7901,2.6558843 2.08234,-0.6555621 2.62108,-2.5991678 2.62108,-2.5991678 z"
             id="path134863-3"
             class="UnoptimicedTransforms"
             transform="translate(5.2916666,17.330208)" /><path
             style="fill:#056102;fill-opacity:1;stroke:none;stroke-width:1.5875;stroke-linecap:round;stroke-linejoin:round;stroke-dasharray:1.5875, 3.175;stroke-dashoffset:0;stroke-opacity:1"
             d="m 624.16433,8.2269031 c 0,0 -0.95255,-1.2301464 -2.90764,-2.6428685 -1.99289,-1.4400393 -4.86828,-2.8628336 -8.51211,-3.2274428 -3.81418,-0.3494624 -7.16255,0.1119466 -10.6,0.5978183 -3.49843,0.3909162 -5.81815,0.8346015 -8.26919,0.3249417 0,-2e-7 0,-4e-7 0,-6e-7 -1.33674,-0.2420176 -2.43936,-0.7345364 -3.32467,-1.2983218 -0.74296,-0.4624992 -1.31923,-0.9596334 -1.77163,-1.28808157 -1.17259,-0.85131087 -1.88115,-1.32434578 -2.61547,-1.44783005 -0.67686,-0.11382066 -1.1971,0.1417042 -1.58235,0.60373014 -0.77745,0.932381 -0.76898,2.65529078 -0.76898,2.65529078 0,0 1.56088,0.5002719 4.51357,1.5722645 1.34529,0.4784563 2.97563,0.9099771 4.8714,1.0319299 0,-2e-7 0,-1e-7 0,0 1.37074,0.08923 2.68826,0.058568 4.40562,-0.066842 1.51,-0.110267 3.06585,-0.3634089 4.5927,-0.5804546 0,0 1e-5,-10e-8 1e-5,-10e-8 3.74038,-0.5889519 6.77774,-1.0800614 10.3353,-0.8402443 4.44102,0.330582 7.47032,2.2711739 9.00634,3.3424767 1.68916,1.1781119 2.09181,1.5825816 2.46949,1.6055135 0.27158,0.01649 0.15761,-0.3418789 0.15761,-0.3418789 z"
             id="path134863-2"
             class="UnoptimicedTransforms"
             transform="rotate(28.660611,622.85555,14.150427)" /></g><g
           id="g134723"
           transform="matrix(1.3959571,0,0,1.3959571,-238.80995,11.122327)"><path
             style="opacity:1;fill:#1c2021;fill-opacity:1;stroke:none;stroke-width:2.89966;stroke-linecap:round;stroke-linejoin:round;stroke-dasharray:2.89966, 5.79932;stroke-dashoffset:0;stroke-opacity:1"
             d="m 596.58262,-36.339032 c -0.38344,-0.27616 -0.61671,-0.739455 -0.6421,-1.211312 -0.0254,-0.471857 0.14865,-0.945599 0.44872,-1.310633 0.30008,-0.365033 0.72008,-0.623426 1.1726,-0.759499 0.45253,-0.136074 0.9363,-0.153312 1.40371,-0.08389 1.21533,0.180504 2.2895,0.935221 3.07558,1.879507 0.47033,0.564984 0.85954,1.218305 0.99747,1.94038 0.069,0.361037 0.0734,0.736037 -0.004,1.095262 -0.0779,0.359225 -0.23945,0.702174 -0.48049,0.979667 -0.22225,0.255856 -0.51021,0.453497 -0.82746,0.572704 -0.31724,0.119208 -0.66309,0.160132 -0.99987,0.122315 -0.67358,-0.07564 -1.29762,-0.473958 -1.67537,-1.036748 -0.16173,-0.240958 -0.27984,-0.507921 -0.41671,-0.763818 -0.13688,-0.255896 -0.29719,-0.506264 -0.52302,-0.688527 -0.22095,-0.178323 -0.49174,-0.281384 -0.75875,-0.377925 -0.26701,-0.09654 -0.5395,-0.191549 -0.7699,-0.357482 z"
             id="path134143" /><path
             style="opacity:1;fill:#1c2021;fill-opacity:1;stroke:none;stroke-width:2.89966;stroke-linecap:round;stroke-linejoin:round;stroke-dasharray:2.89966, 5.79932;stroke-dashoffset:0;stroke-opacity:1"
             d="m 603.71095,-38.997055 c -0.37621,-0.258938 -0.66607,-0.638342 -0.82787,-1.065428 -0.16179,-0.427085 -0.19644,-0.899812 -0.11007,-1.348276 0.0864,-0.448464 0.29229,-0.87189 0.58273,-1.224344 0.29044,-0.352455 0.66419,-0.63412 1.07816,-0.827006 0.82795,-0.385772 1.80185,-0.406413 2.67588,-0.141083 0.87402,0.265331 1.65103,0.802165 2.27967,1.464836 0.38479,0.405622 0.72388,0.870504 0.88934,1.404562 0.0827,0.267028 0.12058,0.549263 0.097,0.827814 -0.0236,0.278552 -0.10975,0.553254 -0.26139,0.788105 -0.18257,0.282767 -0.45581,0.501063 -0.76027,0.644563 -0.30447,0.1435 -0.63946,0.214851 -0.97519,0.238828 -0.67147,0.04796 -1.34035,-0.08903 -2.00993,-0.158475 -0.45737,-0.04743 -0.91838,-0.0635 -1.37236,-0.136536 -0.45398,-0.07304 -0.9069,-0.206857 -1.28567,-0.46756 z"
             id="path134147" /><path
             style="opacity:1;fill:#1c2021;fill-opacity:1;stroke:none;stroke-width:2.89966;stroke-linecap:round;stroke-linejoin:round;stroke-dasharray:2.89966, 5.79932;stroke-dashoffset:0;stroke-opacity:1"
             d="m 605.28161,-36.218213 c -0.046,-0.21103 -0.0123,-0.43586 0.0787,-0.631725 0.091,-0.195864 0.23729,-0.363432 0.40929,-0.494073 0.34399,-0.261284 0.77757,-0.37262 1.20346,-0.444852 0.53964,-0.09153 1.09393,-0.12982 1.63391,-0.04036 0.53999,0.08946 1.06712,0.313635 1.46033,0.694381 0.19661,0.190372 0.35791,0.418364 0.46363,0.670792 0.10571,0.252428 0.15512,0.529357 0.13421,0.802229 -0.0209,0.272872 -0.11306,0.541124 -0.27159,0.7642 -0.15854,0.223076 -0.38393,0.399564 -0.64163,0.491696 -0.20978,0.075 -0.43716,0.09382 -0.65901,0.07336 -0.22184,-0.02046 -0.43877,-0.07931 -0.64805,-0.155698 -0.41856,-0.152787 -0.80922,-0.375665 -1.23016,-0.521758 -0.37795,-0.131171 -0.77789,-0.199585 -1.14265,-0.363887 -0.18239,-0.08215 -0.35561,-0.188835 -0.49722,-0.330111 -0.14161,-0.141277 -0.25063,-0.318753 -0.29323,-0.514195 z"
             id="path134151" /><path
             style="opacity:1;fill:#1c2021;fill-opacity:1;stroke:none;stroke-width:2.89966;stroke-linecap:round;stroke-linejoin:round;stroke-dasharray:2.89966, 5.79932;stroke-dashoffset:0;stroke-opacity:1"
             d="m 599.48228,-43.829825 c 0.64285,-0.0546 1.32212,-0.01495 1.87917,0.310525 0.27852,0.162738 0.51922,0.396606 0.66668,0.683515 0.14745,0.286908 0.19702,0.627848 0.11216,0.939068 -0.0633,0.231984 -0.1986,0.441628 -0.37375,0.606369 -0.17515,0.16474 -0.38906,0.285606 -0.6158,0.365653 -0.45348,0.160093 -0.94778,0.157685 -1.42682,0.115351 -0.5216,-0.04609 -1.05615,-0.143835 -1.49305,-0.432467 -0.21845,-0.144316 -0.40833,-0.335902 -0.53316,-0.566048 -0.12482,-0.230145 -0.18206,-0.499786 -0.14177,-0.758484 0.0319,-0.204995 0.12392,-0.398694 0.25322,-0.56094 0.1293,-0.162246 0.29507,-0.293673 0.47681,-0.393722 0.3635,-0.200096 0.78287,-0.273706 1.19631,-0.30882 z"
             id="path134155" /></g><path
           id="path133586"
           style="opacity:1;fill:#66cdff;fill-opacity:0.541176;stroke:none;stroke-width:1.5875;stroke-linecap:round;stroke-linejoin:round;stroke-dasharray:none;stroke-dashoffset:0;stroke-opacity:1"
           d="m 603.17403,-73.835286 a 30.86437,15.626737 0 0 0 -30.86427,15.626953 30.86437,15.626737 0 0 0 1.38648,4.60282 30.121277,30.121277 0 0 0 29.47779,24.045561 30.121277,30.121277 0 0 0 29.4535,-24.007837 30.86437,15.626737 0 0 0 1.41076,-4.640544 30.86437,15.626737 0 0 0 -30.86426,-15.626953 z" /><ellipse
           style="fill:#aee5ff;fill-opacity:0.694118;stroke:none;stroke-width:1.91834;stroke-linecap:round;stroke-linejoin:round;stroke-dasharray:none;stroke-dashoffset:0;stroke-opacity:1"
           id="path130003-1"
           cx="603.17401"
           cy="-58.208336"
           rx="30.86437"
           ry="15.626737" /></g><path
         id="path130059"
         style="opacity:1;fill:none;fill-opacity:1;stroke:#5e5e5e;stroke-width:1.5875;stroke-linecap:round;stroke-linejoin:round;stroke-dasharray:none;stroke-dashoffset:0;stroke-opacity:1"
         d="m 603.17403,-96.025145 a 23.117661,14.287499 0 0 0 -23.11797,14.2875 23.117661,14.287499 0 0 0 0.33745,2.382283 30.121277,30.121277 0 0 0 -7.34064,19.674251 30.121277,30.121277 0 0 0 30.12116,30.121159 30.121277,30.121277 0 0 0 30.12116,-30.121159 30.121277,30.121277 0 0 0 -7.33496,-19.695955 23.117661,14.287499 0 0 0 0.33125,-2.360579 23.117661,14.287499 0 0 0 -23.11745,-14.2875 z" /><ellipse
         style="opacity:1;fill:none;fill-opacity:1;stroke:#5e5e5e;stroke-width:1.5875;stroke-linecap:round;stroke-linejoin:round;stroke-dasharray:none;stroke-dashoffset:0;stroke-opacity:1"
         id="path130003"
         cx="603.17389"
         cy="-81.737442"
         rx="23.117661"
         ry="14.287499" /></g><ellipse
       style="opacity:1;fill:none;fill-opacity:1;stroke:#046bcc;stroke-width:1.5875;stroke-linecap:round;stroke-linejoin:round;stroke-dasharray:1.5875, 3.175;stroke-dashoffset:0;stroke-opacity:1"
       id="ellipse130135"
       cx="603.17389"
       cy="-81.737442"
       rx="29.384769"
       ry="18.160786" /><path
       style="opacity:1;fill:none;fill-opacity:1;stroke:#7404cc;stroke-width:1.5875;stroke-linecap:round;stroke-linejoin:round;stroke-dasharray:1.5875, 3.175;stroke-dashoffset:0;stroke-opacity:1"
       d="m 637.77812,-60.324999 c -7.70555,6.019562 -17.03177,9.943961 -26.72292,11.244792 -15.8648,2.129512 -32.5623,-3.038761 -44.45,-13.758333"
       id="path130704" /><text
       xml:space="preserve"
       style="font-style:normal;font-variant:normal;font-weight:bold;font-stretch:normal;font-size:6.4823px;font-family:'Open Sans';-inkscape-font-specification:'Open Sans Bold';text-align:center;text-anchor:middle;fill:#7404cc;fill-opacity:1;stroke:none;stroke-width:3.24115;stroke-linecap:round;stroke-linejoin:round;stroke-dasharray:none;stroke-dashoffset:0;stroke-opacity:1"
       x="665.97375"
       y="-54.42371"
       id="text132369"><tspan
         id="tspan132367"
         style="font-style:normal;font-variant:normal;font-weight:bold;font-stretch:normal;font-family:'Open Sans';-inkscape-font-specification:'Open Sans Bold';fill:#7404cc;fill-opacity:1;stroke:none;stroke-width:3.24115"
         x="665.97375"
         y="-54.42371">Circumference</tspan></text><text
       xml:space="preserve"
       style="font-style:normal;font-variant:normal;font-weight:bold;font-stretch:normal;font-size:6.4823px;font-family:'Open Sans';-inkscape-font-specification:'Open Sans Bold';text-align:center;text-anchor:middle;fill:#046bcc;fill-opacity:1;stroke:none;stroke-width:3.24115;stroke-linecap:round;stroke-linejoin:round;stroke-dasharray:none;stroke-dashoffset:0;stroke-opacity:1"
       x="610.47375"
       y="-106.44006"
       id="text132373"><tspan
         id="tspan132371"
         style="font-style:normal;font-variant:normal;font-weight:bold;font-stretch:normal;font-family:'Open Sans';-inkscape-font-specification:'Open Sans Bold';fill:#046bcc;fill-opacity:1;stroke:none;stroke-width:3.24115"
         x="610.47375"
         y="-106.44006">Lid circumference</tspan></text></g></svg>
