<?xml version="1.0" encoding="UTF-8" standalone="no"?>
<!-- Created with Inkscape (http://www.inkscape.org/) -->

<svg
   width="789.79236"
   height="680.51941"
   viewBox="0 0 208.96589 180.0541"
   version="1.1"
   id="svg5"
   xml:space="preserve"
   xmlns="http://www.w3.org/2000/svg"
   xmlns:svg="http://www.w3.org/2000/svg"><defs
     id="defs2" /><g
     id="layer1"
     transform="translate(881.08978,454.19169)"><rect
       style="fill:#ffffff;fill-opacity:1;stroke:none;stroke-width:1.5875;stroke-linecap:round;stroke-linejoin:round;stroke-dasharray:1.5875, 4.7625;stroke-dashoffset:0;stroke-opacity:1"
       id="rect33921-2-7-2"
       width="208.96588"
       height="180.05409"
       x="-881.08978"
       y="274.1376"
       transform="scale(1,-1)" /><text
       xml:space="preserve"
       style="font-style:normal;font-variant:normal;font-weight:bold;font-stretch:normal;font-size:6.4823px;font-family:'Open Sans';-inkscape-font-specification:'Open Sans Bold';text-align:center;text-anchor:middle;fill:#046bcc;fill-opacity:1;stroke:none;stroke-width:3.24115;stroke-linecap:round;stroke-linejoin:round;stroke-dasharray:none;stroke-dashoffset:0;stroke-opacity:1"
       x="-847.59137"
       y="-334.12961"
       id="text148923"><tspan
         id="tspan148921"
         style="font-style:normal;font-variant:normal;font-weight:bold;font-stretch:normal;font-family:'Open Sans';-inkscape-font-specification:'Open Sans Bold';fill:#046bcc;fill-opacity:1;stroke:none;stroke-width:3.24115"
         x="-847.59137"
         y="-334.12961">Height</tspan></text><g
       id="g148929"
       transform="rotate(-90,-1003.7035,-135.76438)"><path
         style="opacity:1;fill:none;fill-opacity:1;stroke:#046bcc;stroke-width:1.5875;stroke-linecap:round;stroke-linejoin:round;stroke-dasharray:none;stroke-opacity:1"
         d="m -760.43646,43.360421 v -3.003886 h -42.9533 -40.30747 v 3.003886"
         id="path148925" /><path
         style="opacity:1;fill:none;fill-opacity:1;stroke:#046bcc;stroke-width:1.5875;stroke-linecap:round;stroke-linejoin:round;stroke-dasharray:none;stroke-opacity:1"
         d="M -803.38976,40.356535 V 36.438427"
         id="path148927" /></g><g
       id="g148935"
       transform="translate(19.461691,-463.04133)"><path
         style="opacity:1;fill:none;fill-opacity:1;stroke:#046bcc;stroke-width:1.5875;stroke-linecap:round;stroke-linejoin:round;stroke-dasharray:none;stroke-opacity:1"
         d="m -760.43646,43.360421 v -3.003886 h -28.13663 -26.54914 v 3.003886"
         id="path148931" /><path
         style="opacity:1;fill:none;fill-opacity:1;stroke:#046bcc;stroke-width:1.5875;stroke-linecap:round;stroke-linejoin:round;stroke-dasharray:none;stroke-opacity:1"
         d="M -788.57309,40.356535 V 36.438427"
         id="path148933" /></g><text
       xml:space="preserve"
       style="font-style:normal;font-variant:normal;font-weight:bold;font-stretch:normal;font-size:6.4823px;font-family:'Open Sans';-inkscape-font-specification:'Open Sans Bold';text-align:center;text-anchor:middle;fill:#046bcc;fill-opacity:1;stroke:none;stroke-width:3.24115;stroke-linecap:round;stroke-linejoin:round;stroke-dasharray:none;stroke-dashoffset:0;stroke-opacity:1"
       x="-768.36511"
       y="-433.27582"
       id="text148939"><tspan
         id="tspan148937"
         style="font-style:normal;font-variant:normal;font-weight:bold;font-stretch:normal;font-family:'Open Sans';-inkscape-font-specification:'Open Sans Bold';fill:#046bcc;fill-opacity:1;stroke:none;stroke-width:3.24115"
         x="-768.36511"
         y="-433.27582">Length</tspan></text><g
       id="g148983"
       transform="translate(189.85774,-228.78235)"><path
         style="opacity:1;fill:none;fill-opacity:1;stroke:#5e5e5e;stroke-width:1.5875;stroke-linecap:round;stroke-linejoin:round;stroke-dasharray:none;stroke-dashoffset:0;stroke-opacity:1"
         d="m -984.92804,-186.29248 0.79375,81.11208"
         id="path148971" /><path
         id="path148973"
         style="opacity:1;fill:#c1ebff;fill-opacity:0.54902;stroke-width:2.26806;stroke-linecap:round;stroke-linejoin:round;stroke-dasharray:2.26806, 4.53612"
         d="m -931.7366,-142.44328 -69.4567,35.62864 16.26526,-35.62864 z" /><path
         id="path148975"
         style="opacity:1;fill:none;stroke:#5e5e5e;stroke-width:1.5875;stroke-linecap:round;stroke-linejoin:round"
         d="m -931.7366,-186.29248 -69.4567,35.62864 16.26526,-35.62864 z" /><path
         style="opacity:1;fill:none;fill-opacity:1;stroke:#5e5e5e;stroke-width:1.5875;stroke-linecap:round;stroke-linejoin:round;stroke-dasharray:none;stroke-dashoffset:0;stroke-opacity:1"
         d="m -1001.1933,-150.66384 0.7937,81.112081"
         id="path148977" /><path
         style="opacity:1;fill:none;fill-opacity:1;stroke:#5e5e5e;stroke-width:1.5875;stroke-linecap:round;stroke-linejoin:round;stroke-dasharray:none;stroke-dashoffset:0;stroke-opacity:1"
         d="m -932.53035,-185.49873 0.79375,81.11208"
         id="path148979" /><path
         id="path148981"
         style="opacity:1;fill:none;fill-opacity:1;stroke:#5e5e5e;stroke-width:1.5875;stroke-linecap:round;stroke-linejoin:round;stroke-dasharray:none;stroke-dashoffset:0;stroke-opacity:1"
         d="m -984.92816,-186.29262 -16.26514,35.62883 0.7844,80.186835 0.01,0.925196 68.66303,-34.834751 v -81.90611 z" /><path
         id="path148941"
         style="opacity:1;fill:none;stroke:#5e5e5e;stroke-width:1.56233;stroke-linecap:round;stroke-linejoin:round"
         d="m -931.72403,-104.39923 -68.68817,34.894108 16.0853,-34.894108 z" /><g
         id="g148967"
         transform="matrix(1.751258,0,0,1.751258,-1924.7264,-680.46733)"
         style="stroke-width:1.10559;stroke-dasharray:none"><path
           style="opacity:1;fill:#033901;fill-opacity:1;stroke:none;stroke-width:1.10559;stroke-linecap:round;stroke-linejoin:round;stroke-dasharray:none;stroke-opacity:1"
           d="m 548.60959,333.84794 c 0.1045,0.4732 0.0693,0.97403 -0.0837,1.43385 -0.15296,0.45983 -0.42169,0.8785 -0.76354,1.22197 -0.68372,0.68694 -1.64262,1.05813 -2.60757,1.14876 -0.96496,0.0906 -1.93881,-0.0816 -2.86638,-0.36266 -0.92756,-0.28102 -1.81821,-0.66955 -2.71981,-1.02517 -0.53018,-0.20912 -1.06808,-0.40867 -1.55646,-0.70245 -0.48838,-0.29378 -0.93068,-0.69252 -1.17725,-1.20635 -0.27038,-0.56344 -0.28257,-1.2347 -0.0815,-1.82644 0.20101,-0.59174 0.60465,-1.10435 1.10187,-1.48295 0.49722,-0.37861 1.08492,-0.62794 1.69187,-0.77685 0.60695,-0.14891 1.23425,-0.20012 1.85915,-0.20808 2.13059,-0.0271 4.35032,0.49325 5.95665,1.8932 0.57948,0.50503 1.08095,1.14258 1.24671,1.89317 z"
           id="path148943" /><path
           style="opacity:1;fill:#056102;fill-opacity:1;stroke:none;stroke-width:1.10559;stroke-linecap:round;stroke-linejoin:round;stroke-dasharray:none;stroke-opacity:1"
           d="m 546.91614,334.36562 c -0.0326,-0.52459 0.12266,-1.05891 0.4313,-1.48435 0.30864,-0.42543 0.76839,-0.73885 1.27719,-0.87068 0.23874,-0.0618 0.49741,-0.0835 0.72805,0.004 0.11532,0.0437 0.22133,0.11468 0.29908,0.21039 0.0777,0.0957 0.12606,0.21665 0.12725,0.33995 8.8e-4,0.0917 -0.024,0.18276 -0.0661,0.26422 -0.0421,0.0815 -0.10106,0.15353 -0.16859,0.21554 -0.13506,0.12404 -0.3019,0.20705 -0.46722,0.28639 -0.44084,0.21155 -0.88845,0.40875 -1.32985,0.61913 -0.27964,0.13328 -0.55675,0.27184 -0.83116,0.41558 z"
           id="path148945" /><path
           style="fill:#056102;fill-opacity:1;stroke:none;stroke-width:1.10559;stroke-linecap:round;stroke-linejoin:round;stroke-dasharray:none;stroke-opacity:1"
           d="m 540.33637,334.30247 c -0.42243,0.75069 -0.72342,1.56954 -0.88774,2.4151 -0.0897,0.46181 -0.14616,0.95008 -0.41184,1.33833 -0.13284,0.19413 -0.31917,0.35706 -0.54177,0.43309 -0.1113,0.038 -0.23059,0.0538 -0.3476,0.042 -0.11702,-0.0119 -0.23159,-0.0517 -0.32839,-0.11855 -0.15398,-0.10627 -0.25722,-0.27777 -0.29744,-0.46049 -0.0402,-0.18272 -0.0205,-0.37556 0.0378,-0.55333 0.11664,-0.35554 0.37651,-0.64272 0.62752,-0.92022 0.496,-0.54835 0.9849,-1.10449 1.52001,-1.61475 0.20346,-0.19401 0.41342,-0.3812 0.62941,-0.56115 z"
           id="path148947" /><path
           style="fill:#056102;fill-opacity:1;stroke:none;stroke-width:1.10559;stroke-linecap:round;stroke-linejoin:round;stroke-dasharray:none;stroke-opacity:1"
           d="m 540.61971,328.02069 c -0.24027,-0.52603 -0.56052,-1.03404 -0.62541,-1.6087 -0.0324,-0.28733 0.004,-0.58797 0.14173,-0.84224 0.0688,-0.12714 0.16246,-0.2414 0.27689,-0.32976 0.11444,-0.0884 0.24985,-0.15039 0.39245,-0.17419 0.26564,-0.0443 0.54434,0.0485 0.75195,0.22004 0.2076,0.17156 0.34764,0.41565 0.42352,0.67406 0.15176,0.51681 0.0573,1.06885 -0.007,1.60367 -0.0996,0.8319 -0.12299,1.67351 -0.272,2.498 -0.15493,0.85722 -0.44587,1.68971 -0.85864,2.45682 0.49684,-1.4551 0.41505,-3.0991 -0.22378,-4.4977 z"
           id="path148949" /><path
           style="fill:#056102;fill-opacity:1;stroke:none;stroke-width:1.10559;stroke-linecap:round;stroke-linejoin:round;stroke-dasharray:none;stroke-opacity:1"
           d="m 540.2714,333.40567 c 0.32808,-1.60396 -0.13265,-3.35015 -1.20933,-4.58347 -0.37689,-0.43172 -0.8312,-0.81429 -1.07265,-1.33403 -0.12073,-0.25987 -0.18293,-0.55287 -0.13729,-0.83575 0.0228,-0.14144 0.0726,-0.27901 0.14998,-0.39957 0.0774,-0.12056 0.18277,-0.22377 0.30755,-0.29417 0.237,-0.1337 0.5343,-0.14036 0.78963,-0.0463 0.25533,0.0941 0.46981,0.28158 0.62547,0.50476 0.31134,0.44637 0.39001,1.00861 0.47944,1.54543 0.25192,1.51225 0.65725,3.0552 0.34339,4.55582 -0.0635,0.30366 -0.15613,0.60122 -0.27617,0.88728 z"
           id="path148951" /><path
           style="fill:#056102;fill-opacity:1;stroke:none;stroke-width:1.10559;stroke-linecap:round;stroke-linejoin:round;stroke-dasharray:none;stroke-opacity:1"
           d="m 540.73696,332.99966 c 0.85513,-1.56711 1.25813,-3.37763 1.14845,-5.1595 -0.0172,-0.27901 -0.0466,-0.55766 -0.0448,-0.83719 0.002,-0.27953 0.036,-0.56251 0.14139,-0.82144 0.10534,-0.25892 0.287,-0.49321 0.53328,-0.62545 0.12314,-0.0661 0.26104,-0.10581 0.40074,-0.11001 0.13971,-0.004 0.28101,0.0276 0.40295,0.0959 0.15032,0.0842 0.26747,0.22179 0.34011,0.37802 0.0726,0.15624 0.10233,0.33037 0.10051,0.50266 -0.004,0.34457 -0.12887,0.67477 -0.2517,0.99673 -0.63284,1.65885 -1.2546,3.34111 -2.2299,4.82471 -0.1702,0.2589 -0.35073,0.51101 -0.54103,0.75552 z"
           id="path148953" /><path
           style="fill:#056102;fill-opacity:1;stroke:none;stroke-width:1.10559;stroke-linecap:round;stroke-linejoin:round;stroke-dasharray:none;stroke-opacity:1"
           d="m 541.01728,332.15921 c -0.0672,1.78398 0.37888,3.58438 1.27112,5.13066 0.13971,0.24212 0.29024,0.47845 0.41316,0.72951 0.12292,0.25106 0.21841,0.51964 0.23949,0.79837 0.0211,0.27874 -0.0371,0.56943 -0.19869,0.79756 -0.0808,0.11407 -0.18653,0.21106 -0.30973,0.27707 -0.12319,0.066 -0.26388,0.10048 -0.40348,0.0937 -0.17209,-0.008 -0.33828,-0.0794 -0.47293,-0.18685 -0.13465,-0.10749 -0.23883,-0.25015 -0.31398,-0.4052 -0.1503,-0.31008 -0.18532,-0.66149 -0.21884,-1.00445 -0.1727,-1.76705 -0.36575,-3.55011 -0.15379,-5.31288 0.037,-0.30762 0.0863,-0.61376 0.14765,-0.91745 z"
           id="path148955" /><path
           style="fill:#056102;fill-opacity:1;stroke:none;stroke-width:1.10559;stroke-linecap:round;stroke-linejoin:round;stroke-dasharray:none;stroke-opacity:1"
           d="m 542.09176,335.27628 c 1.54601,-0.89272 2.83274,-2.22866 3.66683,-3.80707 0.1306,-0.24715 0.25055,-0.50038 0.39765,-0.73808 0.14711,-0.23769 0.32364,-0.46149 0.54839,-0.6277 0.22475,-0.16622 0.50183,-0.27166 0.78094,-0.25634 0.13956,0.008 0.27796,0.0456 0.39942,0.11472 0.12146,0.0691 0.22553,0.1699 0.29407,0.29171 0.0845,0.15016 0.11289,0.32862 0.0936,0.49983 -0.0193,0.17121 -0.0846,0.33534 -0.17589,0.48148 -0.1825,0.2923 -0.46136,0.50901 -0.73385,0.71994 -1.40399,1.08679 -2.81069,2.19934 -4.41582,2.95818 -0.28011,0.13242 -0.56551,0.25367 -0.85528,0.36334 z"
           id="path148957" /><path
           style="fill:#056102;fill-opacity:1;stroke:none;stroke-width:1.10559;stroke-linecap:round;stroke-linejoin:round;stroke-dasharray:none;stroke-opacity:1"
           d="m 542.22782,334.45967 c 1.19788,-1.3237 2.01308,-2.98978 2.32311,-4.7479 0.0485,-0.27529 0.0851,-0.5531 0.15223,-0.82445 0.0671,-0.27134 0.16658,-0.53849 0.32955,-0.7656 0.16297,-0.22711 0.39438,-0.41242 0.66475,-0.4834 0.13518,-0.0355 0.27854,-0.0419 0.41535,-0.0133 0.13681,0.0286 0.26676,0.0926 0.36934,0.18751 0.12646,0.11702 0.2082,0.27818 0.24229,0.44707 0.0341,0.16889 0.0222,0.34515 -0.0198,0.51223 -0.0841,0.33417 -0.28309,0.62594 -0.4778,0.91025 -1.0032,1.46488 -2.0011,2.9551 -3.29629,4.1695 -0.22602,0.21192 -0.4605,0.41482 -0.7027,0.60805 z"
           id="path148959" /><path
           style="fill:#056102;fill-opacity:1;stroke:none;stroke-width:1.10559;stroke-linecap:round;stroke-linejoin:round;stroke-dasharray:none;stroke-opacity:1"
           d="m 539.53348,334.05088 c -0.85272,0.47144 -1.62568,1.08672 -2.27634,1.81199 -0.34723,0.38704 -0.67692,0.81852 -1.14836,1.03786 -0.23572,0.10967 -0.50455,0.15984 -0.75916,0.10728 -0.12731,-0.0263 -0.24978,-0.0781 -0.35464,-0.15492 -0.10486,-0.0768 -0.19176,-0.17891 -0.24676,-0.29669 -0.0903,-0.19334 -0.0903,-0.42243 -0.0205,-0.62408 0.0698,-0.20165 0.20536,-0.37666 0.3694,-0.51312 0.32809,-0.27291 0.75388,-0.39092 1.16345,-0.51083 0.78605,-0.23014 1.56327,-0.4932 2.36085,-0.67949 0.3017,-0.0705 0.60599,-0.12986 0.91205,-0.17802 z"
           id="path148961" /><path
           style="fill:#056102;fill-opacity:1;stroke:none;stroke-width:1.10559;stroke-linecap:round;stroke-linejoin:round;stroke-dasharray:none;stroke-opacity:1"
           d="m 540.0156,334.73344 c -0.0464,-0.52041 -0.27151,-1.02323 -0.6288,-1.40446 -0.35728,-0.38122 -0.84446,-0.63843 -1.36078,-0.71843 -0.67825,-0.10509 -1.3819,0.0875 -2.05304,-0.0561 -0.33557,-0.0718 -0.66306,-0.2366 -0.86642,-0.51302 -0.10169,-0.13822 -0.16986,-0.30239 -0.18651,-0.47316 -0.0166,-0.17078 0.0196,-0.34776 0.11021,-0.49349 0.0877,-0.14117 0.22383,-0.24948 0.37657,-0.31503 0.15275,-0.0656 0.3215,-0.0897 0.48756,-0.0823 0.33211,0.0147 0.646,0.15081 0.94326,0.29965 0.62357,0.31223 1.21681,0.69267 1.7272,1.16789 0.51038,0.47522 0.93681,1.0479 1.19981,1.69378 0.11707,0.2875 0.20144,0.58829 0.25096,0.89473 z"
           id="path148963" /><path
           style="fill:#056102;fill-opacity:1;stroke:none;stroke-width:1.10559;stroke-linecap:round;stroke-linejoin:round;stroke-dasharray:none;stroke-opacity:1"
           d="m 540.2355,333.16748 c -0.60047,-0.76735 -1.33035,-1.43318 -2.14947,-1.96084 -0.43713,-0.28159 -0.91535,-0.53882 -1.20655,-0.96961 -0.1456,-0.21539 -0.23769,-0.47288 -0.2261,-0.73261 0.006,-0.12986 0.0376,-0.25899 0.0968,-0.37468 0.0593,-0.1157 0.14631,-0.21767 0.2539,-0.29062 0.17661,-0.11975 0.40282,-0.15601 0.61297,-0.11903 0.21016,0.037 0.40442,0.14316 0.56512,0.28354 0.32141,0.28075 0.50532,0.6825 0.68855,1.06793 0.35166,0.73971 0.73441,1.4655 1.0446,2.22354 0.11734,0.28675 0.22415,0.5778 0.32015,0.87238 z"
           id="path148965" /></g><path
         id="path148969"
         style="opacity:1;fill:#67cdff;fill-opacity:0.321569;stroke-width:2.26806;stroke-linecap:round;stroke-linejoin:round;stroke-dasharray:2.26806, 4.53612"
         d="m -984.92819,-142.44328 -16.26511,35.62832 v 38.056583 l 69.4567,-35.628303 v -38.0566 z" /></g></g></svg>
