<?xml version="1.0" encoding="UTF-8" standalone="no"?>
<!-- Created with Inkscape (http://www.inkscape.org/) -->

<svg
   width="789.7923"
   height="680.51935"
   viewBox="0 0 208.96587 180.05408"
   version="1.1"
   id="svg5"
   xml:space="preserve"
   xmlns="http://www.w3.org/2000/svg"
   xmlns:svg="http://www.w3.org/2000/svg"><defs
     id="defs2" /><g
     id="layer1"
     transform="translate(764.27496,251.12691)"><rect
       style="fill:#ffffff;fill-opacity:1;stroke:none;stroke-width:1.5875;stroke-linecap:round;stroke-linejoin:round;stroke-dasharray:1.5875, 4.7625;stroke-dashoffset:0;stroke-opacity:1"
       id="rect33921-2-7"
       width="208.96588"
       height="180.05409"
       x="-764.27496"
       y="71.072815"
       transform="scale(1,-1)" /><text
       xml:space="preserve"
       style="font-style:normal;font-variant:normal;font-weight:bold;font-stretch:normal;font-size:4.79588px;font-family:'Open Sans';-inkscape-font-specification:'Open Sans Bold';text-align:center;text-anchor:middle;fill:#7404cc;fill-opacity:1;stroke:none;stroke-width:3.24115;stroke-linecap:round;stroke-linejoin:round;stroke-dasharray:none;stroke-dashoffset:0;stroke-opacity:1"
       x="-658.86133"
       y="-212.94923"
       id="text59131-6-0-4-9-2-0"><tspan
         id="tspan59129-1-0-7-4-8-9"
         style="font-style:normal;font-variant:normal;font-weight:bold;font-stretch:normal;font-size:4.79588px;font-family:'Open Sans';-inkscape-font-specification:'Open Sans Bold';fill:#7404cc;fill-opacity:1;stroke:none;stroke-width:3.24115"
         x="-658.86133"
         y="-212.94923">Side 1</tspan></text><text
       xml:space="preserve"
       style="font-style:normal;font-variant:normal;font-weight:bold;font-stretch:normal;font-size:4.79588px;font-family:'Open Sans';-inkscape-font-specification:'Open Sans Bold';text-align:center;text-anchor:middle;fill:#7404cc;fill-opacity:1;stroke:none;stroke-width:4.60844;stroke-linecap:round;stroke-linejoin:round;stroke-dasharray:none;stroke-dashoffset:0;stroke-opacity:1"
       x="-506.56192"
       y="-432.82959"
       id="text59131-6-0-4-9-2-0-3"
       transform="rotate(-25.00388)"><tspan
         id="tspan59129-1-0-7-4-8-9-3"
         style="font-style:normal;font-variant:normal;font-weight:bold;font-stretch:normal;font-size:4.79588px;font-family:'Open Sans';-inkscape-font-specification:'Open Sans Bold';fill:#7404cc;fill-opacity:1;stroke:none;stroke-width:4.60844"
         x="-506.56192"
         y="-432.82959">Side 3</tspan></text><text
       xml:space="preserve"
       style="font-style:normal;font-variant:normal;font-weight:bold;font-stretch:normal;font-size:4.79588px;font-family:'Open Sans';-inkscape-font-specification:'Open Sans Bold';text-align:center;text-anchor:middle;fill:#7404cc;fill-opacity:1;stroke:none;stroke-width:3.24115;stroke-linecap:round;stroke-linejoin:round;stroke-dasharray:none;stroke-dashoffset:0;stroke-opacity:1"
       x="-678.90674"
       y="167.00246"
       id="text59131-6-0-4-9-2-0-3-3"
       transform="rotate(28.663936)"><tspan
         id="tspan59129-1-0-7-4-8-9-3-5"
         style="font-style:normal;font-variant:normal;font-weight:bold;font-stretch:normal;font-size:4.79588px;font-family:'Open Sans';-inkscape-font-specification:'Open Sans Bold';fill:#7404cc;fill-opacity:1;stroke:none;stroke-width:3.24115"
         x="-678.90674"
         y="167.00246">Side 2</tspan></text><text
       xml:space="preserve"
       style="font-style:normal;font-variant:normal;font-weight:bold;font-stretch:normal;font-size:6.4823px;font-family:'Open Sans';-inkscape-font-specification:'Open Sans Bold';text-align:center;text-anchor:middle;fill:#046bcc;fill-opacity:1;stroke:none;stroke-width:3.24115;stroke-linecap:round;stroke-linejoin:round;stroke-dasharray:none;stroke-dashoffset:0;stroke-opacity:1"
       x="-721.64258"
       y="-160.20956"
       id="text59131-6-0-4-3-5"><tspan
         id="tspan59129-1-0-7-40-7"
         style="font-style:normal;font-variant:normal;font-weight:bold;font-stretch:normal;font-family:'Open Sans';-inkscape-font-specification:'Open Sans Bold';fill:#046bcc;fill-opacity:1;stroke:none;stroke-width:3.24115"
         x="-721.64258"
         y="-160.20956">Height</tspan></text><g
       id="g7338"
       transform="translate(-668.70924,-212.2343)"><path
         style="fill:none;fill-opacity:1;stroke:#5e5e5e;stroke-width:1.5875;stroke-linecap:round;stroke-linejoin:round;stroke-dasharray:none;stroke-opacity:1"
         d="M 38.136274,86.642629 H -17.7621"
         id="path7331-0" /><g
         id="g23031-2-5-07"
         transform="matrix(0.21440996,0,0,0.21440996,-217.61533,18.29787)"
         style="fill:none;fill-opacity:1;stroke:#cc0404;stroke-opacity:1"><path
           style="opacity:1;fill:none;fill-opacity:1;stroke:#cc0404;stroke-width:3.93132;stroke-linecap:round;stroke-linejoin:round;stroke-dasharray:none;stroke-opacity:1"
           d="m 1052.7985,324.70521 c -1.0615,-3.57193 0.053,-9.7091 -1.847,-12.55969 -6.1841,-9.27606 -17.1627,-8.83656 -21.4254,-17.36193 -5.8558,-11.71165 -4.5656,-41.87528 -9.2351,-46.54479 -7.0152,-7.01526 -13.0749,-1.90553 -14.4067,-12.5597"
           id="path22834-5-8-0" /><path
           style="opacity:1;fill:none;fill-opacity:1;stroke:#cc0404;stroke-width:3.93132;stroke-linecap:round;stroke-linejoin:round;stroke-dasharray:none;stroke-opacity:1"
           d="m 1022.8987,255.94176 c 9.0483,-12.02279 4.1075,-3.44878 9.2132,-22.47908 0.8592,-3.20224 6.3341,3.13089 9.6045,2.58582 6.7077,-1.11794 4.1793,-8.40242 3.3246,-11.82089"
           id="path22962-4-0-32" /><path
           style="opacity:1;fill:none;fill-opacity:1;stroke:#cc0404;stroke-width:3.93132;stroke-linecap:round;stroke-linejoin:round;stroke-dasharray:none;stroke-opacity:1"
           d="m 1024.6243,270.41342 c -2.6227,-1.56969 -2.4549,-2.04737 -5.8109,-1.48804 -2.0077,0.33462 -3.712,3.25435 -5.9104,3.69401 -8.3503,1.67007 -7.3754,-12.6432 -18.10077,-11.45148"
           id="path22964-7-9-13" /><path
           style="opacity:1;fill:none;fill-opacity:1;stroke:#cc0404;stroke-width:3.93132;stroke-linecap:round;stroke-linejoin:round;stroke-dasharray:none;stroke-opacity:1"
           d="m 1029.3414,240.08468 c 3.9719,-21.79979 -11.4823,-11.36347 -12.375,-20.2899"
           id="path22966-8-5-6" /><path
           style="opacity:1;fill:none;fill-opacity:1;stroke:#cc0404;stroke-width:3.93132;stroke-linecap:round;stroke-linejoin:round;stroke-dasharray:none;stroke-opacity:1"
           d="m 1029.5261,294.78359 c 1.6008,-4.06345 3.4426,-8.03995 4.8022,-12.19031 0.9856,-3.00847 1.2153,-6.23176 2.2165,-9.23507 0.985,-2.95524 5.9104,3.94031 8.8656,2.95521 5.1624,-1.72077 5.245,-6.51325 3.6941,-9.38993"
           id="path22968-7-8-6" /><path
           style="opacity:1;fill:none;fill-opacity:1;stroke:#cc0404;stroke-width:3.93132;stroke-linecap:round;stroke-linejoin:round;stroke-dasharray:none;stroke-opacity:1"
           d="m 1050.9515,312.14552 c 4.3376,-5.37033 6.4943,-9.37805 11.8209,-12.92911 7.5944,-5.06293 17.074,4.79415 23.2724,-1.847 8.0216,-8.59459 10.9225,-31.74135 12.9291,-33.24628 9.7538,-7.3154 27.1819,-6.73152 32.138,-19.94776"
           id="path22970-8-9-9" /><path
           style="opacity:1;fill:none;fill-opacity:1;stroke:#cc0404;stroke-width:3.93132;stroke-linecap:round;stroke-linejoin:round;stroke-dasharray:none;stroke-opacity:1"
           d="m 1119.2894,255.34497 c 8.6172,6.20924 16.892,6.38338 26.9681,1.40866"
           id="path22972-5-9-3" /><path
           style="opacity:1;fill:none;fill-opacity:1;stroke:#cc0404;stroke-width:3.93132;stroke-linecap:round;stroke-linejoin:round;stroke-dasharray:none;stroke-opacity:1"
           d="m 1105.2537,261.0424 c 1.5625,-9.3783 10.2407,-18.76473 4.0635,-26.17518"
           id="path22974-1-3-5" /><path
           style="opacity:1;fill:none;fill-opacity:1;stroke:#cc0404;stroke-width:3.93132;stroke-linecap:round;stroke-linejoin:round;stroke-dasharray:none;stroke-opacity:1"
           d="m 1096.388,273.55932 c 10.4773,-6.69314 17.695,13.95373 25.4888,4.60113"
           id="path22976-9-0-5" /><path
           style="opacity:1;fill:none;fill-opacity:1;stroke:#cc0404;stroke-width:3.93132;stroke-linecap:round;stroke-linejoin:round;stroke-dasharray:none;stroke-opacity:1"
           d="m 1086.0448,297.36941 c 14.1996,-9.41432 11.9031,16.13781 23.0876,12.19028"
           id="path22978-8-7-8" /><path
           style="opacity:1;fill:none;fill-opacity:1;stroke:#cc0404;stroke-width:3.93132;stroke-linecap:round;stroke-linejoin:round;stroke-dasharray:none;stroke-opacity:1"
           d="m 1073.1235,298.44431 c 8.9226,-16.75755 11.6946,-31.98064 5.1638,-43.91121"
           id="path22980-4-3-5" /><path
           style="opacity:1;fill:none;fill-opacity:1;stroke:#cc0404;stroke-width:3.93132;stroke-linecap:round;stroke-linejoin:round;stroke-dasharray:none;stroke-opacity:1"
           d="m 1098.9739,264.12313 c 2.2908,-14.28049 -3.1821,-23.38873 -10.3433,-34.1834"
           id="path22982-7-4-8" /><path
           style="opacity:1;fill:none;fill-opacity:1;stroke:#cc0404;stroke-width:3.93132;stroke-linecap:round;stroke-linejoin:round;stroke-dasharray:none;stroke-opacity:1"
           d="m 1094.0643,237.52612 c -9.0156,12.54601 -21.2044,-11.49328 -29.0755,2.55856"
           id="path22984-8-4-3" /><path
           style="opacity:1;fill:none;fill-opacity:1;stroke:#cc0404;stroke-width:3.93132;stroke-linecap:round;stroke-linejoin:round;stroke-dasharray:none;stroke-opacity:1"
           d="m 1024.6243,270.41342 c -1.1307,-12.04322 16.2714,-9.14864 20.9887,-15.21384 2.8662,-3.68499 1.8082,-8.45877 4.1794,-12.01554 7.461,-11.19161 22.1606,-16.39923 22.5192,-31.60608"
           id="path22986-4-3-9" /><path
           style="opacity:1;fill:none;fill-opacity:1;stroke:#cc0404;stroke-width:3.93132;stroke-linecap:round;stroke-linejoin:round;stroke-dasharray:none;stroke-opacity:1"
           d="m 1062.0691,229.12785 c -3.5166,-7.04197 -0.7912,-19.66484 -8.4587,-23.81887"
           id="path22988-5-8-88" /><path
           style="opacity:1;fill:none;fill-opacity:1;stroke:#cc0404;stroke-width:3.93132;stroke-linecap:round;stroke-linejoin:round;stroke-dasharray:none;stroke-opacity:1"
           d="m 1057.8397,210.76609 c 9.4298,2.18728 6.4793,-10.66864 10.7596,-11.20367"
           id="path22990-6-5-0" /><path
           style="opacity:1;fill:none;fill-opacity:1;stroke:#cc0404;stroke-width:3.93132;stroke-linecap:round;stroke-linejoin:round;stroke-dasharray:none;stroke-opacity:1"
           d="m 1025.4362,285.1791 c -15.4891,-9.97624 -36.83141,14.96153 -44.30189,-1.84702"
           id="path22992-6-8-9" /><path
           style="opacity:1;fill:none;fill-opacity:1;stroke:#cc0404;stroke-width:3.93132;stroke-linecap:round;stroke-linejoin:round;stroke-dasharray:none;stroke-opacity:1"
           d="M 1009.7133,286.03405 C 1002.508,290.21235 1004.8534,297 995.54103,297"
           id="path22994-4-9-1" /><path
           style="opacity:1;fill:none;fill-opacity:1;stroke:#cc0404;stroke-width:3.93132;stroke-linecap:round;stroke-linejoin:round;stroke-dasharray:none;stroke-opacity:1"
           d="m 1039.7573,304.75745 c -5.5497,4.96769 -12.0127,6.6721 -17.6705,8.19994"
           id="path22996-0-8-5" /><path
           style="opacity:1;fill:none;fill-opacity:1;stroke:#cc0404;stroke-width:3.93132;stroke-linecap:round;stroke-linejoin:round;stroke-dasharray:none;stroke-opacity:1"
           d="m 1082.6881,269.29477 c -17.7189,7.4341 -9.2666,-12.38846 -21.0239,-11.08209"
           id="path22998-0-2-78" /><path
           style="opacity:1;fill:none;fill-opacity:1;stroke:#cc0404;stroke-width:3.93132;stroke-linecap:round;stroke-linejoin:round;stroke-dasharray:none;stroke-opacity:1"
           d="m 1094.0643,237.52612 c 4.0317,-15.1812 15.2582,-9.19188 13.4058,-24.0112"
           id="path23000-6-4-3" /><path
           style="opacity:1;fill:none;fill-opacity:1;stroke:#cc0404;stroke-width:3.93132;stroke-linecap:round;stroke-linejoin:round;stroke-dasharray:none;stroke-opacity:1"
           d="m 1104.4418,225.52052 c 9.2719,-4.42274 22.4598,0.73872 27.482,0"
           id="path23004-3-3-4" /><path
           style="opacity:1;fill:none;fill-opacity:1;stroke:#cc0404;stroke-width:3.93132;stroke-linecap:round;stroke-linejoin:round;stroke-dasharray:none;stroke-opacity:1"
           d="m 1062.7724,299.21641 c -6.116,-1.31437 -6.079,-17.4898 -4.9327,-22.7277"
           id="path23006-9-6-2" /><path
           style="opacity:1;fill:#cc0404;fill-opacity:1;stroke:#cc0404;stroke-width:4.82531;stroke-linecap:round;stroke-linejoin:round;stroke-opacity:1"
           d="m 1042.6207,330.17448 c 1.613,-1.13171 3.0478,-2.50388 4.6769,-3.61235 1.629,-1.10848 3.5333,-1.96167 5.5009,-1.85692 1.0469,0.0557 2.066,0.38167 3.0097,0.83827 0.9437,0.45661 1.8185,1.04248 2.6766,1.64483 1.7161,1.20472 3.4446,2.51454 5.4876,2.98617 1.6285,0.37594 3.3382,0.18732 4.9861,0.46608 0.8239,0.13938 1.6399,0.40166 2.3267,0.87759 0.6869,0.47594 1.2366,1.18199 1.4145,1.9985 0.1347,0.61824 0.051,1.27687 -0.2055,1.85551 -0.256,0.57865 -0.679,1.07757 -1.1888,1.45235 -1.0196,0.74955 -2.3464,0.98657 -3.6083,0.89175 -2.5239,-0.18963 -4.8075,-1.58701 -7.3038,-2.00409 -2.7375,-0.45737 -5.5316,0.29309 -8.1302,1.26784 -2.5986,0.97475 -5.1335,2.18735 -7.859,2.71154 -1.3503,0.2597 -2.775,0.34098 -4.0774,-0.0998 -0.6512,-0.2204 -1.2628,-0.57187 -1.7514,-1.05549 -0.4887,-0.48363 -0.8506,-1.10227 -0.9914,-1.77522 -0.1509,-0.72122 -0.044,-1.48337 0.2353,-2.16521 0.2793,-0.68184 0.7248,-1.28708 1.2437,-1.81022 1.0378,-1.04629 2.3514,-1.76472 3.5578,-2.61112 z"
           id="path24911-5-82" /></g><path
         style="fill:#69cfff;fill-opacity:0.320809;stroke:none;stroke-width:2.00237;stroke-linecap:round;stroke-linejoin:round;stroke-dasharray:none;stroke-opacity:1"
         d="M 38.136274,47.532302 V 86.642629 L 9.9258793,100.34713 -17.7621,86.642629 V 47.532302 Z"
         id="path7273" /><path
         style="fill:none;fill-opacity:1;stroke:#5e5e5e;stroke-width:1.5875;stroke-linecap:round;stroke-linejoin:round;stroke-dasharray:none;stroke-opacity:1"
         d="M 9.9258793,30.160568 38.136274,16.456063 H -17.7621 Z"
         id="path7245" /><path
         style="fill:#c1ebff;fill-opacity:0.549133;stroke:none;stroke-width:2.00237;stroke-linecap:round;stroke-linejoin:round;stroke-dasharray:none;stroke-opacity:1"
         d="M 9.9258792,61.236803 38.136274,47.532302 H -17.7621 Z"
         id="path7247-3" /><path
         style="fill:none;fill-opacity:1;stroke:#5e5e5e;stroke-width:1.5875;stroke-linecap:round;stroke-linejoin:round;stroke-dasharray:none;stroke-opacity:1"
         d="m 38.136274,16.456063 c 0,70.186566 0,70.186566 0,70.186566 L 9.9258793,100.34713 -17.7621,86.642629 V 16.456063 L 9.9258793,30.160568 Z"
         id="path7329" /><path
         style="fill:none;fill-opacity:1;stroke:#5e5e5e;stroke-width:1.5875;stroke-linecap:round;stroke-linejoin:round;stroke-dasharray:none;stroke-opacity:1"
         d="M 9.9258793,30.160568 V 100.34713"
         id="path7331" /></g><g
       id="g30963"
       transform="translate(114.67798,-243.8814)"
       style="stroke:#7404cc;stroke-opacity:1"><path
         style="opacity:1;fill:none;fill-opacity:1;stroke:#7404cc;stroke-width:1.5875;stroke-linecap:round;stroke-linejoin:round;stroke-dasharray:none;stroke-opacity:1"
         d="m -745.61979,43.360421 v -3.003886 h -28.66581 -27.0783 v 3.003886"
         id="path30959" /><path
         style="opacity:1;fill:none;fill-opacity:1;stroke:#7404cc;stroke-width:1.5875;stroke-linecap:round;stroke-linejoin:round;stroke-dasharray:none;stroke-opacity:1"
         d="M -774.2856,40.356535 V 36.438427"
         id="path30961" /></g><path
       style="fill:none;fill-opacity:1;stroke:#7404cc;stroke-width:1.5875;stroke-linecap:round;stroke-linejoin:round;stroke-dasharray:1.5875, 3.175;stroke-dashoffset:0;stroke-opacity:1"
       d="m -655.98883,-179.83378 23.61983,-12.06697"
       id="path31089-0-6" /><path
       style="fill:none;fill-opacity:1;stroke:#7404cc;stroke-width:1.5875;stroke-linecap:round;stroke-linejoin:round;stroke-dasharray:1.5875, 3.175;stroke-dashoffset:0;stroke-opacity:1"
       d="m -661.57789,-179.83378 -23.61983,-12.06697"
       id="path31089-0-6-9" /><g
       id="g30969"
       transform="rotate(-90,-850.19804,-111.11641)"><path
         style="opacity:1;fill:none;fill-opacity:1;stroke:#046bcc;stroke-width:1.5875;stroke-linecap:round;stroke-linejoin:round;stroke-dasharray:none;stroke-opacity:1"
         d="m -765.72813,43.360421 v -3.003886 h -34.48663 -35.0158 v 3.003886"
         id="path30965" /><path
         style="opacity:1;fill:none;fill-opacity:1;stroke:#046bcc;stroke-width:1.5875;stroke-linecap:round;stroke-linejoin:round;stroke-dasharray:none;stroke-opacity:1"
         d="M -800.21476,40.356535 V 36.438427"
         id="path30967" /></g></g></svg>
